<?xml version="1.0" encoding="utf-8"?>
<!-- Generator: Adobe Illustrator 22.1.0, SVG Export Plug-In . SVG Version: 6.00 Build 0)  -->
<svg version="1.1" id="Слой_1" xmlns="http://www.w3.org/2000/svg" xmlns:xlink="http://www.w3.org/1999/xlink" x="0px" y="0px"
	 viewBox="0 0 439.6 176.2" style="enable-background:new 0 0 439.6 176.2;" xml:space="preserve">
<style type="text/css">
	.st0{fill:#272E62;}
</style>
<g>
	<path class="st0" d="M178.4,61.3V67h-2.2v-3.7h-14.1V46.9h2.3v14.3h9.1V46.9h2.3v14.3H178.4z"/>
	<path class="st0" d="M192,57.8H182c0.3,2.2,2,3.6,4.5,3.6c1.5,0,2.7-0.5,3.6-1.5l1.2,1.5c-1.1,1.3-2.8,2-4.9,2
		c-4,0-6.7-2.6-6.7-6.3c0-3.7,2.6-6.3,6.2-6.3s6.1,2.6,6.1,6.4C192.1,57.4,192.1,57.6,192,57.8z M182,56.2h8c-0.2-2.1-1.8-3.6-4-3.6
		C183.8,52.7,182.2,54.1,182,56.2z"/>
	<path class="st0" d="M195.6,50.9h2.2v5.3h7.1v-5.3h2.2v12.4h-2.2v-5.2h-7.1v5.2h-2.2V50.9z"/>
	<path class="st0" d="M220.7,52.9h-4.5v10.4H214V52.9h-4.5v-2h11.3V52.9z"/>
	<path class="st0" d="M235.9,57.1c0,3.8-2.6,6.3-6.3,6.3c-1.8,0-3.3-0.7-4.3-2v6.4H223V50.9h2.2v2c1-1.4,2.6-2.1,4.4-2.1
		C233.2,50.8,235.9,53.3,235.9,57.1z M233.6,57.1c0-2.6-1.8-4.4-4.2-4.4c-2.4,0-4.2,1.7-4.2,4.4c0,2.6,1.8,4.4,4.2,4.4
		C231.8,61.5,233.6,59.7,233.6,57.1z"/>
	<path class="st0" d="M254.6,52.9h-4.5v10.4h-2.2V52.9h-4.5v-2h11.3V52.9z"/>
	<path class="st0" d="M267.6,57.8h-10.1c0.3,2.2,2,3.6,4.5,3.6c1.5,0,2.7-0.5,3.6-1.5l1.2,1.5c-1.1,1.3-2.8,2-4.9,2
		c-4,0-6.7-2.6-6.7-6.3c0-3.7,2.6-6.3,6.2-6.3c3.6,0,6.1,2.6,6.1,6.4C267.6,57.4,267.6,57.6,267.6,57.8z M257.5,56.2h8
		c-0.2-2.1-1.8-3.6-4-3.6C259.3,52.7,257.7,54.1,257.5,56.2z"/>
	<path class="st0" d="M278.5,63.3l-3.6-4.7l-3.6,4.7h-2.5l4.9-6.3l-4.7-6.1h2.5l3.4,4.5l3.4-4.5h2.5l-4.7,6.1l4.9,6.3H278.5z"/>
	<path class="st0" d="M283.4,50.9h2.2v5.3h7.1v-5.3h2.2v12.4h-2.2v-5.2h-7.1v5.2h-2.2V50.9z"/>
	<path class="st0" d="M298.2,57.1c0-3.7,2.7-6.3,6.5-6.3s6.4,2.6,6.4,6.3s-2.7,6.3-6.4,6.3S298.2,60.8,298.2,57.1z M308.8,57.1
		c0-2.6-1.8-4.4-4.2-4.4s-4.2,1.7-4.2,4.4c0,2.6,1.8,4.4,4.2,4.4S308.8,59.7,308.8,57.1z"/>
	<path class="st0" d="M324.8,50.9v12.4h-2.2V52.9h-5.3l-0.1,2.8c-0.2,4.4-0.8,7.9-3.6,7.9c-0.4,0-0.9-0.1-1.4-0.2l0.1-1.9
		c0.2,0,0.4,0.1,0.6,0.1c2,0,2.1-3,2.3-6l0.2-4.6H324.8z"/>
	<path class="st0" d="M328,57.1c0-3.7,2.7-6.3,6.5-6.3s6.4,2.6,6.4,6.3s-2.7,6.3-6.4,6.3S328,60.8,328,57.1z M338.7,57.1
		c0-2.6-1.8-4.4-4.2-4.4s-4.2,1.7-4.2,4.4c0,2.6,1.8,4.4,4.2,4.4S338.7,59.7,338.7,57.1z"/>
	<path class="st0" d="M353.3,52.9h-6.9v10.4h-2.2V50.9h9.1V52.9z"/>
	<path class="st0" d="M355.6,50.9h2.2v9l7.6-9h2v12.4h-2.2v-9l-7.6,9h-2.1V50.9z"/>
	<path class="st0" d="M371.8,50.9h2.2v9l7.6-9h2v12.4h-2.2v-9l-7.6,9h-2.1V50.9z M374,46.1h1.5c0,1.2,0.9,1.9,2.1,1.9
		c1.3,0,2.1-0.7,2.2-1.9h1.6c0,2.1-1.4,3.2-3.7,3.2S374,48.2,374,46.1z"/>
	<path class="st0" d="M174.6,81.7c0,3.8-2.6,6.3-6.3,6.3c-1.8,0-3.3-0.7-4.3-2v6.4h-2.2V75.5h2.2v2c1-1.4,2.6-2.1,4.4-2.1
		C172,75.4,174.6,77.9,174.6,81.7z M172.4,81.7c0-2.6-1.8-4.4-4.2-4.4c-2.4,0-4.2,1.7-4.2,4.4c0,2.6,1.8,4.4,4.2,4.4
		C170.5,86.1,172.4,84.4,172.4,81.7z"/>
	<path class="st0" d="M187.5,80.4v7.5h-2.1v-1.6c-0.7,1.1-2.1,1.8-4.1,1.8c-2.8,0-4.6-1.5-4.6-3.6c0-2,1.3-3.6,5-3.6h3.6v-0.4
		c0-1.9-1.1-3-3.3-3c-1.5,0-3,0.5-3.9,1.3L177,77c1.3-1,3.1-1.6,5.1-1.6C185.6,75.4,187.5,77,187.5,80.4z M185.2,84.1v-1.7h-3.5
		c-2.2,0-2.9,0.9-2.9,1.9c0,1.2,1,2,2.7,2C183.3,86.3,184.7,85.5,185.2,84.1z"/>
	<path class="st0" d="M190.4,81.7c0-3.7,2.7-6.3,6.5-6.3c2.2,0,4.1,0.9,5.1,2.6l-1.7,1.1c-0.8-1.2-2-1.8-3.4-1.8
		c-2.4,0-4.3,1.7-4.3,4.4c0,2.7,1.8,4.4,4.3,4.4c1.4,0,2.6-0.6,3.4-1.8l1.7,1.1c-1,1.7-2.8,2.7-5.1,2.7
		C193.1,88.1,190.4,85.4,190.4,81.7z"/>
	<path class="st0" d="M216.4,75.5v12.4h-2.2V77.5h-7v10.4h-2.2V75.5H216.4z"/>
	<path class="st0" d="M233.6,81.7c0,3.8-2.6,6.3-6.3,6.3c-1.8,0-3.3-0.7-4.3-2v6.4h-2.2V75.5h2.2v2c1-1.4,2.6-2.1,4.4-2.1
		C230.9,75.4,233.6,77.9,233.6,81.7z M231.3,81.7c0-2.6-1.8-4.4-4.2-4.4c-2.4,0-4.2,1.7-4.2,4.4c0,2.6,1.8,4.4,4.2,4.4
		C229.5,86.1,231.3,84.4,231.3,81.7z"/>
	<path class="st0" d="M248,82.5h-10.1c0.3,2.2,2,3.6,4.5,3.6c1.5,0,2.7-0.5,3.6-1.5l1.2,1.5c-1.1,1.3-2.8,2-4.9,2
		c-4,0-6.7-2.6-6.7-6.3c0-3.7,2.6-6.3,6.2-6.3c3.6,0,6.1,2.6,6.1,6.4C248,82,248,82.3,248,82.5z M237.9,80.8h8
		c-0.2-2.1-1.8-3.6-4-3.6C239.7,77.3,238.1,78.7,237.9,80.8z"/>
	<path class="st0" d="M263.9,85.9v4.8h-2.1v-2.9h-10.4v2.9h-2.1v-4.8h0.7c1.8-0.1,2.1-3.1,2.2-6.2l0.2-4.2h9.6v10.4H263.9z
		 M252.8,85.9h6.9v-8.5h-5.4l-0.1,2.4C254.1,82.4,253.9,85,252.8,85.9z"/>
	<path class="st0" d="M278,82.5h-10.1c0.3,2.2,2,3.6,4.5,3.6c1.5,0,2.7-0.5,3.6-1.5l1.2,1.5c-1.1,1.3-2.8,2-4.9,2
		c-4,0-6.7-2.6-6.7-6.3c0-3.7,2.6-6.3,6.2-6.3c3.6,0,6.1,2.6,6.1,6.4C278,82,278,82.3,278,82.5z M267.9,80.8h8
		c-0.2-2.1-1.8-3.6-4-3.6C269.7,77.3,268.1,78.7,267.9,80.8z"/>
	<path class="st0" d="M291.9,75.5v12.4h-2.2V77.5h-5.3l-0.1,2.8c-0.2,4.4-0.8,7.9-3.6,7.9c-0.4,0-0.9-0.1-1.4-0.2l0.1-1.9
		c0.2,0,0.4,0.1,0.6,0.1c2,0,2.1-3,2.3-6l0.2-4.6H291.9z"/>
	<path class="st0" d="M307.4,82.5h-10.1c0.3,2.2,2,3.6,4.5,3.6c1.5,0,2.7-0.5,3.6-1.5l1.2,1.5c-1.1,1.3-2.8,2-4.9,2
		c-4,0-6.7-2.6-6.7-6.3c0-3.7,2.6-6.3,6.2-6.3c3.6,0,6.1,2.6,6.1,6.4C307.5,82,307.4,82.3,307.4,82.5z M297.4,80.8h8
		c-0.2-2.1-1.8-3.6-4-3.6C299.2,77.3,297.6,78.7,297.4,80.8z"/>
	<path class="st0" d="M311,75.5h2.2v5.3h7.1v-5.3h2.2v12.4h-2.2v-5.2h-7.1v5.2H311V75.5z"/>
	<path class="st0" d="M326.9,75.5h2.2v5.3h7.1v-5.3h2.2v12.4h-2.2v-5.2h-7.1v5.2h-2.2V75.5z"/>
	<path class="st0" d="M353.2,83.8c0,2.7-1.9,4.2-5.2,4.2l-5.2,0V75.5h2.2v4.2l3.3,0C351.5,79.7,353.2,81.2,353.2,83.8z M350.9,83.7
		c0-1.6-1.1-2.3-3.1-2.4l-2.8,0v4.9l2.8,0C349.9,86.3,350.9,85.4,350.9,83.7z M355.1,75.5h2.2v12.4h-2.2V75.5z"/>
	<path class="st0" d="M369.4,87.9l-3.6-4.7l-3.6,4.7h-2.5l4.9-6.3l-4.7-6.1h2.5l3.4,4.5l3.4-4.5h2.5l-4.7,6.1l4.9,6.3H369.4z"/>
	<path class="st0" d="M174.6,106.3c0,3.8-2.6,6.3-6.3,6.3c-1.8,0-3.3-0.7-4.3-2v6.4h-2.2v-16.9h2.2v2c1-1.4,2.6-2.1,4.4-2.1
		C172,100,174.6,102.5,174.6,106.3z M172.4,106.3c0-2.6-1.8-4.4-4.2-4.4c-2.4,0-4.2,1.7-4.2,4.4c0,2.6,1.8,4.4,4.2,4.4
		C170.5,110.7,172.4,109,172.4,106.3z"/>
	<path class="st0" d="M189,107.1H179c0.3,2.2,2,3.6,4.5,3.6c1.5,0,2.7-0.5,3.6-1.5l1.2,1.5c-1.1,1.3-2.8,2-4.9,2
		c-4,0-6.7-2.6-6.7-6.3c0-3.7,2.6-6.3,6.2-6.3s6.1,2.6,6.1,6.4C189.1,106.6,189,106.9,189,107.1z M179,105.5h8
		c-0.2-2.1-1.8-3.6-4-3.6C180.8,101.9,179.2,103.4,179,105.5z"/>
	<path class="st0" d="M203.7,107.1h-10.1c0.3,2.2,2,3.6,4.5,3.6c1.5,0,2.7-0.5,3.6-1.5l1.2,1.5c-1.1,1.3-2.8,2-4.9,2
		c-4,0-6.7-2.6-6.7-6.3c0-3.7,2.6-6.3,6.2-6.3s6.1,2.6,6.1,6.4C203.8,106.6,203.7,106.9,203.7,107.1z M193.7,105.5h8
		c-0.2-2.1-1.8-3.6-4-3.6C195.5,101.9,193.9,103.4,193.7,105.5z"/>
	<path class="st0" d="M206.1,106.3c0-3.7,2.7-6.3,6.5-6.3c2.2,0,4.1,0.9,5.1,2.6l-1.7,1.1c-0.8-1.2-2-1.8-3.4-1.8
		c-2.4,0-4.3,1.7-4.3,4.4c0,2.7,1.8,4.4,4.3,4.4c1.4,0,2.6-0.6,3.4-1.8l1.7,1.1c-1,1.7-2.8,2.7-5.1,2.7
		C208.8,112.7,206.1,110,206.1,106.3z"/>
	<path class="st0" d="M229.7,102.1h-4.5v10.4h-2.2v-10.4h-4.5v-2h11.3V102.1z"/>
	<path class="st0" d="M244.8,106.3c0,3.8-2.6,6.3-6.3,6.3c-1.8,0-3.3-0.7-4.3-2v6.4H232v-16.9h2.2v2c1-1.4,2.6-2.1,4.4-2.1
		C242.2,100,244.8,102.5,244.8,106.3z M242.5,106.3c0-2.6-1.8-4.4-4.2-4.4c-2.4,0-4.2,1.7-4.2,4.4c0,2.6,1.8,4.4,4.2,4.4
		C240.7,110.7,242.5,109,242.5,106.3z"/>
	<path class="st0" d="M246.9,106.3c0-3.7,2.7-6.3,6.5-6.3s6.4,2.6,6.4,6.3c0,3.7-2.7,6.3-6.4,6.3S246.9,110,246.9,106.3z
		 M257.5,106.3c0-2.6-1.8-4.4-4.2-4.4s-4.2,1.7-4.2,4.4c0,2.6,1.8,4.4,4.2,4.4S257.5,109,257.5,106.3z"/>
	<path class="st0" d="M273.9,109.1c0,2.2-1.6,3.4-4.9,3.4h-6v-12.4h5.8c2.9,0,4.7,1.1,4.7,3.2c0,1.3-0.7,2.3-2,2.8
		C273.1,106.5,273.9,107.5,273.9,109.1z M265.2,105.5h3.4c1.7,0,2.6-0.6,2.6-1.8c0-1.2-0.9-1.8-2.6-1.8h-3.4V105.5z M271.6,109
		c0-1.3-0.8-1.9-2.7-1.9h-3.7v3.7h3.6C270.7,110.8,271.6,110.2,271.6,109z"/>
	<path class="st0" d="M282.7,104.3c0-4.8,3.7-8.4,8.7-8.4c2.5,0,4.7,0.9,6.2,2.5l-1.5,1.5c-1.3-1.3-2.8-1.9-4.6-1.9
		c-3.7,0-6.4,2.7-6.4,6.3c0,3.6,2.7,6.3,6.4,6.3c1.8,0,3.3-0.6,4.6-2l1.5,1.5c-1.5,1.7-3.7,2.6-6.2,2.6
		C286.4,112.7,282.7,109.2,282.7,104.3z"/>
	<path class="st0" d="M315,96.2v16.4h-2.3V98.2h-9.5v14.3h-2.3V96.2H315z"/>
	<path class="st0" d="M332,106.6c0,3.6-2.6,6.1-6.4,6.1c-4.2,0-6.6-3-6.6-8.3c0-5.1,2.1-7.9,6.4-8.8l5.7-1.3l0.3,2.1l-5.2,1.1
		c-3.2,0.7-4.7,2.3-5,5.5c1.1-1.6,2.8-2.5,4.9-2.5C329.5,100.6,332,103,332,106.6z M329.7,106.7c0-2.5-1.6-4.1-4.1-4.1
		s-4.1,1.6-4.1,4.1s1.7,4.2,4.1,4.2C328,110.8,329.7,109.1,329.7,106.7z"/>
	<path class="st0" d="M346.2,98.2h-8.4l0,14.3h-2.3V96.2h10.7L346.2,98.2z"/>
	<path class="st0" d="M362.4,96.2l-7.3,13.5c-1.2,2.2-2.8,3.2-4.6,3.2c-0.7,0-1.5-0.2-2.2-0.5l0.6-1.9c0.5,0.2,1.1,0.3,1.5,0.3
		c1,0,1.8-0.5,2.5-1.6l0.4-0.6l-6.6-12.4h2.5l5.3,10.4l5.5-10.4H362.4z"/>
</g>
<g>
	<g>
		<rect x="109.2" y="73.8" class="st0" width="28.2" height="2.3"/>
	</g>
	<g>
		<rect x="113.4" y="82.6" class="st0" width="24" height="2.3"/>
	</g>
	<g>
		<rect x="101.1" y="87.1" class="st0" width="32.1" height="2.3"/>
	</g>
	<g>
		<rect x="101.1" y="91.4" class="st0" width="36" height="2.3"/>
	</g>
	<g>
		<rect x="101.1" y="95.8" class="st0" width="32.1" height="2.3"/>
	</g>
	<g>
		<rect x="109.2" y="100.1" class="st0" width="16.2" height="2.3"/>
	</g>
	<g>
		<rect x="93" y="108.8" class="st0" width="16.2" height="2.3"/>
	</g>
	<g>
		<rect x="93" y="113.2" class="st0" width="20.4" height="2.3"/>
	</g>
	<g>
		<rect x="101.1" y="117.5" class="st0" width="12.3" height="2.3"/>
	</g>
	<g>
		<rect x="101.1" y="121.9" class="st0" width="8.1" height="2.3"/>
	</g>
	<g>
		<rect x="80.1" y="126.5" class="st0" width="21" height="2.3"/>
	</g>
	<g>
		<rect x="84.5" y="121.9" class="st0" width="12.9" height="2.3"/>
	</g>
	<g>
		<rect x="84.5" y="131" class="st0" width="12.9" height="2.3"/>
	</g>
	<g>
		<rect x="113.4" y="69.4" class="st0" width="19.6" height="2.3"/>
	</g>
	<g>
		<rect x="113.4" y="78.1" class="st0" width="19.6" height="2.3"/>
	</g>
	<g>
		<rect x="80.8" y="78.1" class="st0" width="19.6" height="2.3"/>
	</g>
	<g>
		<rect x="83.9" y="73.8" class="st0" width="13.5" height="2.3"/>
	</g>
	<g>
		<rect x="83.9" y="69.4" class="st0" width="13.5" height="2.3"/>
	</g>
	<g>
		<rect x="92.8" y="65" class="st0" width="7.6" height="2.3"/>
	</g>
	<g>
		<rect x="96.6" y="60.6" class="st0" width="16.1" height="2.3"/>
	</g>
	<g>
		<rect x="96.6" y="56.2" class="st0" width="16.1" height="2.3"/>
	</g>
	<g>
		<rect x="101" y="51.8" class="st0" width="7.6" height="2.3"/>
	</g>
	<g>
		<rect x="84.5" y="42.7" class="st0" width="12.1" height="2.3"/>
	</g>
	<g>
		<rect x="84.5" y="38.3" class="st0" width="12.1" height="2.3"/>
	</g>
	<g>
		<rect x="101" y="47.3" class="st0" width="7.6" height="2.3"/>
	</g>
	<g>
		<rect x="113.1" y="38.3" class="st0" width="7.6" height="2.3"/>
	</g>
	<g>
		<rect x="117.3" y="65" class="st0" width="19.6" height="2.3"/>
	</g>
	<g>
		<rect x="121.6" y="60.6" class="st0" width="11.5" height="2.3"/>
	</g>
	<g>
		<rect x="125.6" y="56.2" class="st0" width="11.5" height="2.3"/>
	</g>
	<g>
		<rect x="129.6" y="51.8" class="st0" width="4.3" height="2.3"/>
	</g>
	<g>
		<rect x="133.7" y="47.3" class="st0" width="4.3" height="2.3"/>
	</g>
	<g>
		<rect x="112.7" y="51.8" class="st0" width="4.3" height="2.3"/>
	</g>
	<g>
		<rect x="93" y="51.8" class="st0" width="4.3" height="2.3"/>
	</g>
	<g>
		<rect x="88.7" y="47.3" class="st0" width="4.3" height="2.3"/>
	</g>
	<g>
		<rect x="88.7" y="33.8" class="st0" width="4.3" height="2.3"/>
	</g>
	<g>
		<rect x="112.7" y="47.3" class="st0" width="4.3" height="2.3"/>
	</g>
	<g>
		<rect x="108.7" y="42.7" class="st0" width="4.3" height="2.3"/>
	</g>
	<g>
		<rect x="120.4" y="42.7" class="st0" width="4.3" height="2.3"/>
	</g>
	<g>
		<rect x="101.1" y="82.6" class="st0" width="4.3" height="2.3"/>
	</g>
	<g>
		<rect x="88.4" y="117.5" class="st0" width="4.3" height="2.3"/>
	</g>
	<g>
		<rect x="88.4" y="135.4" class="st0" width="4.3" height="2.3"/>
	</g>
	<g>
		<rect x="101.1" y="100.1" class="st0" width="4.3" height="2.3"/>
	</g>
	<g>
		<rect x="101.1" y="104.4" class="st0" width="4.3" height="2.3"/>
	</g>
	<g>
		<rect x="109.2" y="104.4" class="st0" width="4.3" height="2.3"/>
	</g>
	<g>
		<rect x="116.9" y="104.4" class="st0" width="4.3" height="2.3"/>
	</g>
	<g>
		<g>
			<rect x="43.8" y="73.8" class="st0" width="28.2" height="2.3"/>
		</g>
		<g>
			<rect x="43.7" y="82.6" class="st0" width="24" height="2.3"/>
		</g>
		<g>
			<rect x="48" y="87.1" class="st0" width="32.1" height="2.3"/>
		</g>
		<g>
			<rect x="44.1" y="91.4" class="st0" width="36" height="2.3"/>
		</g>
		<g>
			<rect x="48" y="95.8" class="st0" width="32.1" height="2.3"/>
		</g>
		<g>
			<rect x="55.8" y="100.1" class="st0" width="16.2" height="2.3"/>
		</g>
		<g>
			<rect x="72" y="108.8" class="st0" width="16.2" height="2.3"/>
		</g>
		<g>
			<rect x="67.8" y="113.2" class="st0" width="20.4" height="2.3"/>
		</g>
		<g>
			<rect x="67.8" y="117.5" class="st0" width="12.3" height="2.3"/>
		</g>
		<g>
			<rect x="72" y="121.9" class="st0" width="8.1" height="2.3"/>
		</g>
		<g>
			<rect x="48.2" y="69.4" class="st0" width="19.6" height="2.3"/>
		</g>
		<g>
			<rect x="48.2" y="78.1" class="st0" width="19.6" height="2.3"/>
		</g>
		<g>
			<rect x="80.8" y="65" class="st0" width="7.6" height="2.3"/>
		</g>
		<g>
			<rect x="68.5" y="60.6" class="st0" width="16.1" height="2.3"/>
		</g>
		<g>
			<rect x="68.5" y="56.2" class="st0" width="16.1" height="2.3"/>
		</g>
		<g>
			<rect x="72.5" y="51.8" class="st0" width="7.6" height="2.3"/>
		</g>
		<g>
			<rect x="72.5" y="47.3" class="st0" width="7.6" height="2.3"/>
		</g>
		<g>
			<rect x="60.5" y="38.3" class="st0" width="7.6" height="2.3"/>
		</g>
		<g>
			<rect x="44.2" y="65" class="st0" width="19.6" height="2.3"/>
		</g>
		<g>
			<rect x="48.2" y="60.6" class="st0" width="11.5" height="2.3"/>
		</g>
		<g>
			<rect x="44.1" y="56.2" class="st0" width="11.5" height="2.3"/>
		</g>
		<g>
			<rect x="47.2" y="51.8" class="st0" width="4.3" height="2.3"/>
		</g>
		<g>
			<rect x="43.2" y="47.3" class="st0" width="4.3" height="2.3"/>
		</g>
		<g>
			<rect x="64.2" y="51.8" class="st0" width="4.3" height="2.3"/>
		</g>
		<g>
			<rect x="83.8" y="51.8" class="st0" width="4.3" height="2.3"/>
		</g>
		<g>
			<rect x="64.2" y="47.3" class="st0" width="4.3" height="2.3"/>
		</g>
		<g>
			<rect x="68.2" y="42.7" class="st0" width="4.3" height="2.3"/>
		</g>
		<g>
			<rect x="56.4" y="42.7" class="st0" width="4.3" height="2.3"/>
		</g>
		<g>
			<rect x="75.8" y="82.6" class="st0" width="4.3" height="2.3"/>
		</g>
		<g>
			<rect x="75.7" y="100.1" class="st0" width="4.3" height="2.3"/>
		</g>
		<g>
			<rect x="75.7" y="104.4" class="st0" width="4.3" height="2.3"/>
		</g>
		<g>
			<rect x="67.6" y="104.4" class="st0" width="4.3" height="2.3"/>
		</g>
		<g>
			<rect x="59.9" y="104.4" class="st0" width="4.3" height="2.3"/>
		</g>
	</g>
</g>
</svg>
